<mxfile host="app.diagrams.net" modified="2024-08-18T15:06:59.801Z" agent="Mozilla/5.0 (Windows NT 10.0; Win64; x64) AppleWebKit/537.36 (KHTML, like Gecko) Chrome/127.0.0.0 Safari/537.36" version="24.7.3" etag="lyGxMKR5lrDuK1kzQe-9" type="github">
  <diagram name="Page-1" id="CHyuK-1_CnwtrVRfvJT6">
    <mxGraphModel>
      <root>
        <mxCell id="0" />
        <mxCell id="1" parent="0" />
      </root>
    </mxGraphModel>
  </diagram>
</mxfile>
